<svg xmlns="http://www.w3.org/2000/svg" fill='none'>
    <symbol id='home' viewBox="0 0 18 18">
        <path
            d="M6.28558 16.896V14.144C6.28558 13.4416 6.88943 12.8721 7.63431 12.8721H10.3572C10.7149 12.8721 11.058 13.0061 11.3109 13.2446C11.5638 13.4832 11.7059 13.8067 11.7059 14.144V16.896C11.7037 17.1881 11.8251 17.4689 12.0433 17.6762C12.2615 17.8834 12.5584 18 12.868 18H14.7257C15.5933 18.0021 16.4262 17.6785 17.0405 17.1007C17.6548 16.5229 18 15.7383 18 14.92V7.08017C18 6.41921 17.6893 5.79225 17.1517 5.3682L10.8322 0.608282C9.73294 -0.226294 8.1579 -0.199348 7.09142 0.672281L0.916117 5.3682C0.353123 5.77975 0.0166285 6.40857 0 7.08017V14.912C0 16.6175 1.46594 18 3.27427 18H5.08954C5.73274 18 6.25547 17.5106 6.26013 16.904L6.28558 16.896Z"
        />
    </symbol>
    <symbol id='train' viewBox="0 0 24 24">
        <g clip-path="url(#clip0_125_1628)">
            <path
                d="M12.1235 18.9614C12.8765 19.7154 12.8718 20.9283 12.1235 21.6766L10.4301 23.3699C9.68806 24.1139 8.46831 24.1233 7.71495 23.3699L0.630095 16.2851C-0.11818 15.5363 -0.11818 14.3182 0.630095 13.5699L2.32343 11.8766C3.07176 11.1282 4.28469 11.1236 5.03863 11.8766L12.1235 18.9614ZM0.915534 18.1303C0.742312 17.9571 0.454329 17.9889 0.320609 18.1942C-0.210575 19.0095 -0.0467607 19.9923 0.561939 20.601L3.39905 23.4382C4.00247 24.0416 4.98459 24.2152 5.80562 23.6798C6.01096 23.5459 6.04316 23.258 5.86984 23.0846L0.915534 18.1303ZM13.2879 8.09774C12.9879 7.79824 12.5017 7.79824 12.2017 8.09774L8.09797 12.2015C7.79798 12.5015 7.79798 12.9877 8.09797 13.2877L10.7124 15.9021C11.0113 16.201 11.4976 16.2021 11.7985 15.9021L15.9023 11.7983C16.2023 11.4983 16.2023 11.0121 15.9023 10.7121L13.2879 8.09774ZM23.0856 5.86866C23.259 6.04203 23.547 6.00972 23.6809 5.8043C24.2159 4.98307 24.0402 4.00071 23.4383 3.39883L20.6012 0.561715C19.994 -0.0450644 19.0118 -0.212286 18.1955 0.319378C17.9901 0.453098 17.9582 0.741129 18.1314 0.914398L23.0856 5.86866ZM16.2853 0.629871C15.5366 -0.118404 14.3184 -0.118884 13.5701 0.629871L11.8768 2.32321C11.1285 3.07148 11.1238 4.28442 11.8768 5.03841L18.9616 12.1233C19.7163 12.877 20.9293 12.8708 21.6768 12.1233L23.3702 10.4299C24.1184 9.68165 24.1184 8.46348 23.3702 7.71473L16.2853 0.629871Z"
            />
        </g>
        <defs>
            <clipPath id="clip0_125_1628">
                <rect width="24" height="24" fill="white" />
            </clipPath>
        </defs>
    </symbol>
    <symbol id='calendar-2' viewBox="0 0 24 24" fill="none">
        <path opacity="0.4"
            d="M21.9897 6.02002C22.0097 6.26002 21.9897 6.51001 21.9297 6.76001L18.5597 20.29C18.3197 21.3 17.4198 22 16.3798 22H3.23974C1.72974 22 0.659755 20.52 1.09976 19.07L5.30975 5.53998C5.59975 4.59998 6.46976 3.96002 7.44976 3.96002H19.7498C20.7097 3.96002 21.4898 4.53002 21.8198 5.33002C21.9198 5.54002 21.9697 5.78002 21.9897 6.02002Z"
            fill="#1F64E5" />
        <path
            d="M22.9899 19.62C23.0899 20.91 22.0699 22 20.7799 22H16.3799C17.4199 22 18.3199 21.3 18.5599 20.29L21.9299 6.76001C21.9899 6.51001 22.0099 6.26002 21.9899 6.02002L21.9999 6L22.9899 19.62Z"
            fill="#1F64E5" />
        <path
            d="M9.67977 7.13001C9.61977 7.13001 9.55977 7.11999 9.49977 7.10999C9.09977 7.00999 8.84979 6.61002 8.94979 6.20002L9.98976 1.88001C10.0898 1.48001 10.4898 1.24002 10.8998 1.33002C11.2998 1.43002 11.5498 1.83 11.4498 2.24L10.4098 6.56C10.3298 6.9 10.0198 7.13001 9.67977 7.13001Z"
            fill="#1F64E5" />
        <path
            d="M16.3799 7.13998C16.3299 7.13998 16.2699 7.13997 16.2199 7.11997C15.8199 7.02996 15.56 6.62995 15.64 6.22995L16.5799 1.88998C16.6699 1.47998 17.0699 1.22997 17.4699 1.30997C17.8699 1.39997 18.1299 1.79998 18.0499 2.19998L17.1099 6.53995C17.0399 6.89995 16.7299 7.13998 16.3799 7.13998Z"
            fill="#1F64E5" />
        <path
            d="M15.7002 12.75H7.7002C7.2902 12.75 6.9502 12.41 6.9502 12C6.9502 11.59 7.2902 11.25 7.7002 11.25H15.7002C16.1102 11.25 16.4502 11.59 16.4502 12C16.4502 12.41 16.1102 12.75 15.7002 12.75Z"
            fill="#1F64E5" />
        <path
            d="M14.7002 16.75H6.7002C6.2902 16.75 5.9502 16.41 5.9502 16C5.9502 15.59 6.2902 15.25 6.7002 15.25H14.7002C15.1102 15.25 15.4502 15.59 15.4502 16C15.4502 16.41 15.1102 16.75 14.7002 16.75Z"
            fill="#1F64E5" />
    </symbol>
    <symbol id='messages' viewBox="0 0 24 24" fill="none">
        <path opacity="0.4"
            d="M8.5 18.97H8C4 18.97 2 17.97 2 12.97V7.96997C2 3.96997 4 1.96997 8 1.96997H16C20 1.96997 22 3.96997 22 7.96997V12.97C22 16.97 20 18.97 16 18.97H15.5C15.19 18.97 14.89 19.12 14.7 19.37L13.2 21.37C12.54 22.25 11.46 22.25 10.8 21.37L9.29999 19.37C9.13999 19.15 8.78 18.97 8.5 18.97Z"
            fill="#1F64E5" />
        <path
            d="M11.75 9.5H7.75C7.34 9.5 7 9.16 7 8.75C7 8.34 7.34 8 7.75 8H11.75C12.16 8 12.5 8.34 12.5 8.75C12.5 9.16 12.16 9.5 11.75 9.5Z"
            fill="#1F64E5" />
        <path
            d="M15.75 13.5H7.75C7.34 13.5 7 13.16 7 12.75C7 12.34 7.34 12 7.75 12H15.75C16.16 12 16.5 12.34 16.5 12.75C16.5 13.16 16.16 13.5 15.75 13.5Z"
            fill="#1F64E5" />
    </symbol>
    <symbol id='user' viewBox="0 0 24 24" fill="none">
        <path opacity="0.4"
            d="M12.0898 12C14.8513 12 17.0898 9.76142 17.0898 7C17.0898 4.23858 14.8513 2 12.0898 2C9.32842 2 7.08984 4.23858 7.08984 7C7.08984 9.76142 9.32842 12 12.0898 12Z"
            fill="#1F64E5" />
        <path
            d="M12.09 14.5C7.08 14.5 3 17.86 3 22C3 22.28 3.22 22.5 3.5 22.5H20.68C20.96 22.5 21.18 22.28 21.18 22C21.18 17.86 17.1 14.5 12.09 14.5Z"
            fill="#1F64E5" />
    </symbol>
    <symbol id='online' viewBox="0 0 16 16" fill="none">
        <circle cx="7.99984" cy="8" r="5.33333" fill="white" />
        <circle cx="7.99967" cy="8" r="2.66667" fill="#1F64E5" />
    </symbol>
    <symbol id='calendar' viewBox="0 0 20 22">
        <path fill-rule="evenodd" clip-rule="evenodd"
            d="M6 0C5.44772 0 5 0.447715 5 1V2.03473C1.91802 2.31951 0 4.34053 0 7.53697V16.3799C0 19.8785 2.24009 22 5.77096 22H14.229C17.7632 22 20 19.9131 20 16.4538V7.53697C20.01 4.33654 18.0939 2.31474 15 2.03373V1C15 0.447715 14.5523 0 14 0C13.4477 0 13 0.447715 13 1V2H7V1C7 0.447715 6.55228 0 6 0ZM5 4.04437V5C5 5.55228 5.44772 6 6 6C6.55228 6 7 5.55228 7 5V4H13V5C13 5.55228 13.4477 6 14 6C14.5523 6 15 5.55228 15 5V4.04296C16.9694 4.27744 18.0065 5.46856 18 7.53385V8H18H2V7.53697C2 5.47611 3.04021 4.28257 5 4.04437ZM2 10L2 16.3799C2 18.7489 3.32107 20 5.77096 20H14.229C16.6885 20 18 18.7763 18 16.4538L18 10H18H2ZM7 13C7 13.5523 6.55228 14 6 14C5.44772 14 5 13.5523 5 13C5 12.4477 5.44772 12 6 12C6.55228 12 7 12.4477 7 13ZM10 14C10.5523 14 11 13.5523 11 13C11 12.4477 10.5523 12 10 12C9.44771 12 9 12.4477 9 13C9 13.5523 9.44771 14 10 14ZM15 13C15 13.5523 14.5523 14 14 14C13.4477 14 13 13.5523 13 13C13 12.4477 13.4477 12 14 12C14.5523 12 15 12.4477 15 13ZM6 18C6.55228 18 7 17.5523 7 17C7 16.4477 6.55228 16 6 16C5.44772 16 5 16.4477 5 17C5 17.5523 5.44772 18 6 18ZM11 17C11 17.5523 10.5523 18 10 18C9.44771 18 9 17.5523 9 17C9 16.4477 9.44771 16 10 16C10.5523 16 11 16.4477 11 17ZM14 18C14.5523 18 15 17.5523 15 17C15 16.4477 14.5523 16 14 16C13.4477 16 13 16.4477 13 17C13 17.5523 13.4477 18 14 18Z"
            fill="black" />
    </symbol>
    <symbol id='add' viewBox="0 0 24 24">
        <path fill-rule="evenodd" clip-rule="evenodd"
            d="M12.9934 5.21671C12.9357 4.71938 12.513 4.33334 12.0002 4.33334C11.4479 4.33334 11.0002 4.78105 11.0002 5.33334V11H5.3335L5.21687 11.0067C4.71954 11.0645 4.3335 11.4872 4.3335 12C4.3335 12.5523 4.78121 13 5.3335 13H11.0002V18.6667L11.0069 18.7833C11.0647 19.2806 11.4873 19.6667 12.0002 19.6667C12.5524 19.6667 13.0002 19.219 13.0002 18.6667V13H18.6668L18.7835 12.9933C19.2808 12.9355 19.6668 12.5128 19.6668 12C19.6668 11.4477 19.2191 11 18.6668 11H13.0002V5.33334L12.9934 5.21671Z"
            fill="white" />
    </symbol>

    <symbol id='arrow-right' viewBox="0 0 14 8">
        <path
            d="M13.3536 4.35355C13.5488 4.15829 13.5488 3.84171 13.3536 3.64645L10.1716 0.464466C9.97631 0.269204 9.65973 0.269204 9.46447 0.464466C9.2692 0.659728 9.2692 0.976311 9.46447 1.17157L12.2929 4L9.46447 6.82843C9.2692 7.02369 9.2692 7.34027 9.46447 7.53553C9.65973 7.7308 9.97631 7.7308 10.1716 7.53553L13.3536 4.35355ZM0 4.5L13 4.5V3.5L0 3.5L0 4.5Z"
            fill="#1F64E5" />
    </symbol>
    <symbol id='tasks-icon' viewBox="0 0 24 24">
        <path opacity="0.6" fill-rule="evenodd" clip-rule="evenodd"
            d="M6.50386 4C6.11521 4 5.87516 4.42398 6.07511 4.75724L8.56275 8.90337C7.9735 9.23677 7.4374 9.65312 6.97028 10.1366L4.36012 5.78622C3.36034 4.11991 4.56064 2 6.50386 2H8.89591C9.93028 2 10.8917 2.53286 11.4399 3.41L12.0046 4.31352L12.5693 3.41C13.1175 2.53286 14.0789 2 15.1133 2H17.4955C19.4388 2 20.6391 4.11995 19.6393 5.78626L17.0328 10.1303C16.5652 9.6475 16.0286 9.23186 15.4391 8.89921L17.9243 4.75725C18.1242 4.42399 17.8842 4 17.4955 4H15.1133C14.7685 4 14.448 4.17762 14.2653 4.47L13.1838 6.20029L14.6256 8.50709C13.8161 8.18005 12.9315 8 12.0049 8L11.9503 8.00021L9.7439 4.47C9.56116 4.17762 9.2407 4 8.89591 4H6.50386Z"
            fill="#F7F6FA" />
        <path fill-rule="evenodd" clip-rule="evenodd"
            d="M12.0049 22C15.8709 22 19.0049 18.866 19.0049 15C19.0049 11.134 15.8709 8 12.0049 8C8.13889 8 5.00488 11.134 5.00488 15C5.00488 18.866 8.13889 22 12.0049 22ZM12.0049 20C14.7663 20 17.0049 17.7614 17.0049 15C17.0049 12.2386 14.7663 10 12.0049 10C9.24346 10 7.00488 12.2386 7.00488 15C7.00488 17.7614 9.24346 20 12.0049 20ZM12.0049 17C13.1095 17 14.0049 16.1046 14.0049 15C14.0049 13.8954 13.1095 13 12.0049 13C10.9003 13 10.0049 13.8954 10.0049 15C10.0049 16.1046 10.9003 17 12.0049 17Z"
            fill="#F7F6FA" />
    </symbol>
    <symbol id='dumbbell' viewBox="0 0 20 20">
        <path
            d="M18.9844 8.78906H17.8997V7.47656C17.8993 7.15552 17.7716 6.84773 17.5446 6.62071C17.3176 6.3937 17.0098 6.266 16.6887 6.26562H16.0097C15.9665 5.97915 15.8222 5.71761 15.6028 5.52843C15.3834 5.33924 15.1035 5.23492 14.8137 5.23438H13.8762C13.8403 5.23435 13.8048 5.24141 13.7716 5.25515C13.7384 5.26888 13.7082 5.28902 13.6829 5.31442C13.6575 5.33981 13.6373 5.36996 13.6236 5.40315C13.6098 5.43633 13.6028 5.4719 13.6028 5.50781V8.78906H6.39719V5.50781C6.39721 5.4719 6.39015 5.43633 6.37641 5.40315C6.36268 5.36996 6.34254 5.33981 6.31715 5.31442C6.29175 5.28902 6.2616 5.26888 6.22841 5.25515C6.19523 5.24141 6.15966 5.23435 6.12375 5.23438H5.18625C4.89654 5.23492 4.61662 5.33924 4.39722 5.52843C4.17782 5.71761 4.03346 5.97915 3.99031 6.26562H3.31125C2.9902 6.266 2.68241 6.3937 2.4554 6.62071C2.22838 6.84773 2.10068 7.15552 2.10031 7.47656V8.78906H1.01563C0.979711 8.78904 0.944145 8.7961 0.910961 8.80983C0.877777 8.82357 0.847625 8.84371 0.82223 8.8691C0.796835 8.8945 0.776694 8.92465 0.76296 8.95784C0.749226 8.99102 0.742167 9.02659 0.742188 9.0625V10.9375C0.742167 10.9734 0.749226 11.009 0.76296 11.0422C0.776694 11.0753 0.796835 11.1055 0.82223 11.1309C0.847625 11.1563 0.877777 11.1764 0.910961 11.1902C0.944145 11.2039 0.979711 11.211 1.01563 11.2109H2.10031V12.5234C2.10068 12.8445 2.22838 13.1523 2.4554 13.3793C2.68241 13.6063 2.9902 13.734 3.31125 13.7344H3.99031C4.03346 14.0209 4.17782 14.2824 4.39722 14.4716C4.61662 14.6608 4.89654 14.7651 5.18625 14.7656H6.12375C6.15966 14.7656 6.19523 14.7586 6.22841 14.7449C6.2616 14.7311 6.29175 14.711 6.31715 14.6856C6.34254 14.6602 6.36268 14.63 6.37641 14.5969C6.39015 14.5637 6.39721 14.5281 6.39719 14.4922V11.2109H13.6028V14.4922C13.6028 14.5281 13.6098 14.5637 13.6236 14.5969C13.6373 14.63 13.6575 14.6602 13.6829 14.6856C13.7082 14.711 13.7384 14.7311 13.7716 14.7449C13.8048 14.7586 13.8403 14.7656 13.8762 14.7656H14.8137C15.1035 14.7651 15.3834 14.6608 15.6028 14.4716C15.8222 14.2824 15.9665 14.0209 16.0097 13.7344H16.6887C17.0098 13.734 17.3176 13.6063 17.5446 13.3793C17.7716 13.1523 17.8993 12.8445 17.8997 12.5234V11.2109H18.9844C19.0203 11.211 19.0559 11.2039 19.089 11.1902C19.1222 11.1764 19.1524 11.1563 19.1778 11.1309C19.2032 11.1055 19.2233 11.0753 19.237 11.0422C19.2508 11.009 19.2578 10.9734 19.2578 10.9375V9.0625C19.2578 9.02659 19.2508 8.99102 19.237 8.95784C19.2233 8.92465 19.2032 8.8945 19.1778 8.8691C19.1524 8.84371 19.1222 8.82357 19.089 8.80983C19.0559 8.7961 19.0203 8.78904 18.9844 8.78906ZM1.28906 10.6641V9.33594H2.10031V10.6641H1.28906ZM2.64719 12.5234V7.47656C2.64739 7.30051 2.71742 7.13172 2.84192 7.00723C2.96641 6.88274 3.13519 6.81271 3.31125 6.8125H3.97531V13.1875H3.31125C3.13522 13.1873 2.96646 13.1173 2.84197 12.9928C2.71748 12.8684 2.64744 12.6996 2.64719 12.5236V12.5234ZM5.18625 14.2188C5.01019 14.2185 4.84141 14.1485 4.71692 14.024C4.59242 13.8995 4.52239 13.7307 4.52219 13.5547V6.44531C4.52239 6.26926 4.59242 6.10047 4.71692 5.97598C4.84141 5.85149 5.01019 5.78146 5.18625 5.78125H5.85031V9.05953V9.0625V9.06547V10.9345V10.9375V10.9405V14.2188H5.18625ZM6.39719 10.6641V9.33594H13.6028V10.6641H6.39719ZM15.4778 13.5547C15.4776 13.7307 15.4076 13.8995 15.2831 14.024C15.1586 14.1485 14.9898 14.2185 14.8137 14.2188H14.1497V10.9405V10.9375V10.9345V9.06547V9.0625V9.05953V5.78125H14.8137C14.9898 5.78146 15.1586 5.85149 15.2831 5.97598C15.4076 6.10047 15.4776 6.26926 15.4778 6.44531V13.5547ZM17.3528 12.5234C17.3526 12.6995 17.2826 12.8683 17.1581 12.9928C17.0336 13.1173 16.8648 13.1873 16.6887 13.1875H16.0247V6.8125H16.6887C16.8648 6.81271 17.0336 6.88274 17.1581 7.00723C17.2826 7.13172 17.3526 7.30051 17.3528 7.47656V12.5234ZM18.7109 10.6641H17.8997V9.33594H18.7109V10.6641Z"
            fill="#1F64E5" />
    </symbol>
    <symbol id='choose-arrow' viewBox="0 0 20 20">
        <path d="M15.8332 7.08334L9.99984 12.9167L4.1665 7.08334" stroke="#A5A3B0"
            stroke-width="1.5" stroke-linecap="round" stroke-linejoin="round" />
    </symbol>
    <symbol id='list-arrow' viewBox="0 0 12 8">
        <path
            d="M5.80579 7.26985C5.59769 7.26985 5.38961 7.18258 5.23095 7.0084L0.238202 1.52463C-0.0794008 1.1758 -0.0794008 0.610213 0.238202 0.261516C0.555679 -0.087172 1.07052 -0.087172 1.38815 0.261516L5.80579 5.11386L10.2235 0.261688C10.5411 -0.0870092 11.0559 -0.0870092 11.3733 0.261688C11.6911 0.610385 11.6911 1.17596 11.3733 1.5248L6.38063 7.00858C6.22189 7.18278 6.01382 7.26985 5.80578 7.26985H5.80579Z"
            fill="#222B45" />
    </symbol>
    <symbol id='polygon-2'>
        <svg width="8" height="10" viewBox="0 0 8 10" fill="none" xmlns="http://www.w3.org/2000/svg">
            <path d="M8 5L0.5 9.33013L0.5 0.669872L8 5Z" fill="#BBF246" />
        </svg>
    </symbol>
    <symbol id='calendar-left' viewBox="0 0 9 14">
        <path d="M7.28662 1.33333L1.45329 7.16667L7.28662 13" stroke="#A5A3B0"
            stroke-width="1.5" stroke-linecap="round" stroke-linejoin="round" />
    </symbol>
    <symbol id='calendar-right' viewBox="0 0 9 14">
        <path d="M1.46338 1.33333L7.29671 7.16667L1.46338 13" stroke="#A5A3B0" stroke-width="1.5"
            stroke-linecap="round" stroke-linejoin="round" />
    </symbol>
    <symbol id='calendar-purple' viewBox="0 0 4 5">
        <path
            d="M3.31933 2.74108C3.31933 3.45237 2.72938 4.04574 1.98079 4.04574C1.2322 4.04574 0.642258 3.45237 0.642258 2.74108C0.642258 2.02979 1.2322 1.43642 1.98079 1.43642C2.72938 1.43642 3.31933 2.02979 3.31933 2.74108Z"
            stroke="#735BF2" stroke-width="1.0853" />
    </symbol>
    <symbol id='calendar-green' viewBox="0 0 4 5">
        <path
            d="M3.67577 2.74108C3.67577 3.45237 3.08583 4.04574 2.33724 4.04574C1.58865 4.04574 0.998703 3.45237 0.998703 2.74108C0.998703 2.02979 1.58865 1.43642 2.33724 1.43642C3.08583 1.43642 3.67577 2.02979 3.67577 2.74108Z"
            stroke="#00B383" stroke-width="1.0853" />

    </symbol>
    <symbol id='calendar-blue' viewBox="0 0 5 5">
        <path
            d="M3.96288 2.74108C3.96288 3.45237 3.37294 4.04574 2.62435 4.04574C1.87576 4.04574 1.28581 3.45237 1.28581 2.74108C1.28581 2.02979 1.87576 1.43642 2.62435 1.43642C3.37294 1.43642 3.96288 2.02979 3.96288 2.74108Z"
            stroke="#0095FF" stroke-width="1.0853" />
    </symbol>
    <symbol id='time' viewBox="0 0 16 16" fill="none">
        <path opacity="0.4"
            d="M0 8C0 3.58154 3.58154 0 8 0C12.4185 0 16 3.58154 16 8C16 10.56 14.7938 12.8492 12.9231 14.3138H12.9108C11.5569 15.3723 9.85846 16 8 16C6.16615 16 4.48 15.3846 3.12615 14.3385H3.11385C1.21846 12.8738 0 10.5846 0 8Z"
            fill="#1F64E5" />
        <path
            d="M9.72306 11.2002C9.48921 11.2002 9.25537 11.114 9.07075 10.9294L7.34767 9.20634C7.17537 9.03404 7.0769 8.80019 7.0769 8.55404V5.12019C7.0769 4.61557 7.49537 4.19711 7.99998 4.19711C8.5046 4.19711 8.92306 4.61557 8.92306 5.12019V8.1725L10.3754 9.62481C10.7323 9.98173 10.7323 10.5725 10.3754 10.9294C10.1908 11.114 9.9569 11.2002 9.72306 11.2002Z"
            fill="#1F64E5" />
    </symbol>
    <symbol id='close' viewBox="0 0 24 24" fill="none">
        <g opacity="0.2">
            <path
                d="M11.9998 3.0481C10.1456 3.0481 8.333 3.59793 6.79129 4.62807C5.24958 5.65821 4.04796 7.12238 3.33839 8.83544C2.62882 10.5485 2.44316 12.4335 2.8049 14.2521C3.16663 16.0706 4.05952 17.7411 5.37063 19.0522C6.68175 20.3633 8.35222 21.2562 10.1708 21.618C11.9894 21.9797 13.8744 21.794 15.5874 21.0845C17.3005 20.3749 18.7647 19.1733 19.7948 17.6316C20.8249 16.0899 21.3748 14.2773 21.3748 12.4231C21.37 9.93816 20.3807 7.55635 18.6236 5.79923C16.8665 4.04211 14.4847 3.05286 11.9998 3.0481ZM15.3982 14.7939C15.5336 14.9306 15.6096 15.1153 15.6096 15.3077C15.6096 15.5001 15.5336 15.6848 15.3982 15.8215C15.2604 15.9548 15.0761 16.0293 14.8844 16.0293C14.6926 16.0293 14.5084 15.9548 14.3706 15.8215L11.9998 13.4417L9.62897 15.8215C9.49113 15.9548 9.30689 16.0293 9.11514 16.0293C8.9234 16.0293 8.73916 15.9548 8.60132 15.8215C8.4659 15.6848 8.38993 15.5001 8.38993 15.3077C8.38993 15.1153 8.4659 14.9306 8.60132 14.7939L10.9811 12.4231L8.60132 10.0523C8.48633 9.91219 8.42756 9.7343 8.43645 9.55326C8.44534 9.37221 8.52126 9.20094 8.64943 9.07277C8.77761 8.94459 8.94887 8.86868 9.12992 8.85978C9.31097 8.85089 9.48885 8.90966 9.62897 9.02466L11.9998 11.4045L14.3706 9.02466C14.5107 8.90966 14.6886 8.85089 14.8696 8.85978C15.0506 8.86868 15.2219 8.94459 15.3501 9.07277C15.4783 9.20094 15.5542 9.37221 15.5631 9.55326C15.572 9.7343 15.5132 9.91219 15.3982 10.0523L13.0184 12.4231L15.3982 14.7939Z"
                fill="#1D2939" />
        </g>
    </symbol>
    <symbol id='drop' viewBox="0 0 24 24">
        <desc>
            Created with Pixso.
        </desc>
        <defs />
        <path id="Shape"
            d="M4 14.381C4 18.589 7.58203 22 12 22C16.418 22 20 18.589 20 14.381C20 11.576 17.333 7.44901 12 2C9.96802 4.207 8.67297 5.64499 8.11597 6.31299C7.69763 6.81403 7.29675 7.32935 6.91394 7.858C4.97095 10.514 4 12.688 4 14.381ZM9.22803 8.116C9.349 7.96201 9.49097 7.78799 9.65198 7.59399C10.04 7.12799 10.8361 6.23499 12.028 4.92801C16.03 9.25101 18 12.493 18 14.381C18 17.462 15.335 20 12 20C8.66504 20 6 17.461 6 14.381C6 13.204 6.81299 11.383 8.52795 9.03799C8.74805 8.73901 8.98096 8.431 9.22803 8.116ZM12 19C9.79004 19 8 17.294 8 15.19C8 13.788 9.33301 11.724 12 9C14.667 11.724 16 13.788 16 15.19C16 17.294 14.21 19 12 19ZM12 17C10.874 17 10 16.167 10 15.19C10 14.653 10.6541 13.515 12 11.95C13.3459 13.515 14 14.653 14 15.19C14 16.167 13.126 17 12 17Z"
            clip-rule="evenodd" fill="#F7F6FA" fill-opacity="1.000000" fill-rule="evenodd" />

    </symbol>
    <symbol id='microphone' viewBox="0 0 24 24">
        <path
            d="M20.75 10C20.75 9.58579 20.4142 9.25 20 9.25C19.5858 9.25 19.25 9.58579 19.25 10H20.75ZM4.75 10C4.75 9.58579 4.41421 9.25 4 9.25C3.58579 9.25 3.25 9.58579 3.25 10H4.75ZM9.8181 21.2724C9.41625 21.3729 9.17193 21.7801 9.27239 22.1819C9.37285 22.5837 9.78006 22.8281 10.1819 22.7276L9.8181 21.2724ZM10.7873 21.8032L10.6054 21.0756L10.7873 21.8032ZM13.2127 21.8032L13.3946 21.0756L13.2127 21.8032ZM13.8181 22.7276C14.2199 22.8281 14.6271 22.5837 14.7276 22.1819C14.8281 21.7801 14.5837 21.3729 14.1819 21.2724L13.8181 22.7276ZM12 21.6539V22.4039V21.6539ZM15.25 6V10H16.75V6H15.25ZM8.75 10V6H7.25V10H8.75ZM12 13.25C10.2051 13.25 8.75 11.7949 8.75 10H7.25C7.25 12.6234 9.37665 14.75 12 14.75V13.25ZM15.25 10C15.25 11.7949 13.7949 13.25 12 13.25V14.75C14.6234 14.75 16.75 12.6234 16.75 10H15.25ZM12 2.75C13.7949 2.75 15.25 4.20507 15.25 6H16.75C16.75 3.37665 14.6234 1.25 12 1.25V2.75ZM12 1.25C9.37665 1.25 7.25 3.37665 7.25 6H8.75C8.75 4.20507 10.2051 2.75 12 2.75V1.25ZM19.25 10C19.25 14.0041 16.0041 17.25 12 17.25V18.75C16.8325 18.75 20.75 14.8325 20.75 10H19.25ZM12 17.25C7.99594 17.25 4.75 14.0041 4.75 10H3.25C3.25 14.8325 7.16751 18.75 12 18.75V17.25ZM11.25 18V21H12.75V18H11.25ZM10.1819 22.7276L10.9692 22.5308L10.6054 21.0756L9.8181 21.2724L10.1819 22.7276ZM13.0308 22.5308L13.8181 22.7276L14.1819 21.2724L13.3946 21.0756L13.0308 22.5308ZM10.9692 22.5308C11.3076 22.4462 11.6538 22.4039 12 22.4039V20.9039C11.5316 20.9039 11.0632 20.9611 10.6054 21.0756L10.9692 22.5308ZM12 22.4039C12.3462 22.4039 12.6924 22.4462 13.0308 22.5308L13.3946 21.0756C12.9368 20.9611 12.4684 20.9039 12 20.9039V22.4039ZM11.25 21V21.6539H12.75V21H11.25Z"
            fill="#7F7F7F" fill-opacity="0.75" />
    </symbol>

    <symbol id='send' viewBox="0 0 30 30">
        <path fill-rule="evenodd" clip-rule="evenodd"
            d="M6.4 23.8849L23.85 16.4049C24.66 16.0549 24.66 14.9149 23.85 14.5649L6.4 7.08488C5.74 6.79488 5.01 7.28488 5.01 7.99488L5 12.6049C5 13.1049 5.37 13.5349 5.87 13.5949L20 15.4849L5.87 17.3649C5.37 17.4349 5 17.8649 5 18.3649L5.01 22.9749C5.01 23.6849 5.74 24.1749 6.4 23.8849Z"
            fill="#F7F6FA" />

    </symbol>
    <symbol id='blue-profile' viewBox="0 0 18 24" fill="none">
        <path
            d="M9 15.8087C13.8802 15.8087 18 16.6539 18 19.9184C18 23.1829 13.8537 24 9 24C4.11984 24 0 23.1535 0 19.8902C0 16.6257 4.14507 15.8087 9 15.8087ZM9 0C12.3055 0 14.9552 2.82522 14.9552 6.34969C14.9552 9.87417 12.3055 12.6994 9 12.6994C5.69451 12.6994 3.04484 9.87417 3.04484 6.34969C3.04484 2.82522 5.69451 0 9 0Z"
            fill="#1F64E5" />
    </symbol>
    <symbol id='search' viewBox="0 0 20 20" fill="none">
        <path fill-rule="evenodd" clip-rule="evenodd"
            d="M8 4C6.93913 4 5.92172 4.42143 5.17157 5.17158C4.42143 5.92172 4 6.93914 4 8C4 9.06087 4.42143 10.0783 5.17157 10.8284C5.92172 11.5786 6.93913 12 8 12C9.06087 12 10.0783 11.5786 10.8284 10.8284C11.5786 10.0783 12 9.06087 12 8C12 6.93914 11.5786 5.92172 10.8284 5.17158C10.0783 4.42143 9.06087 4 8 4ZM2 8C1.99988 7.05571 2.22264 6.12472 2.65017 5.28274C3.0777 4.44077 3.69792 3.7116 4.4604 3.15453C5.22287 2.59746 6.10606 2.22822 7.03815 2.07684C7.97023 1.92546 8.92488 1.99621 9.82446 2.28335C10.724 2.57049 11.5432 3.06591 12.2152 3.7293C12.8872 4.39269 13.3931 5.20534 13.6919 6.10114C13.9906 6.99693 14.0737 7.9506 13.9343 8.88456C13.795 9.81852 13.4372 10.7064 12.89 11.476L17.707 16.293C17.8892 16.4816 17.99 16.7342 17.9877 16.9964C17.9854 17.2586 17.8802 17.5094 17.6948 17.6948C17.5094 17.8802 17.2586 17.9854 16.9964 17.9877C16.7342 17.99 16.4816 17.8892 16.293 17.707L11.477 12.891C10.5794 13.5293 9.52335 13.9082 8.42468 13.9861C7.326 14.0641 6.22707 13.8381 5.2483 13.333C4.26953 12.8278 3.44869 12.063 2.87572 11.1224C2.30276 10.1817 1.99979 9.10144 2 8Z"
            fill="#A1A1AA" />
    </symbol>

    <symbol id='polygon-1' viewBox="0 0 10 12" fill="none">
        <path d="M10 6.33333L0.499999 11.8182L0.5 0.848506L10 6.33333Z" fill="#191D1A" />
    </symbol>
    <symbol id='graphics-arrow' viewBox="0 0 14 8" fill="none">
        <path
            d="M13.3536 4.35355C13.5488 4.15829 13.5488 3.84171 13.3536 3.64645L10.1716 0.464466C9.97631 0.269204 9.65973 0.269204 9.46447 0.464466C9.2692 0.659728 9.2692 0.976311 9.46447 1.17157L12.2929 4L9.46447 6.82843C9.2692 7.02369 9.2692 7.34027 9.46447 7.53553C9.65973 7.7308 9.97631 7.7308 10.1716 7.53553L13.3536 4.35355ZM0 4.5L13 4.5V3.5L0 3.5L0 4.5Z"
            fill="#1F64E5" />
    </symbol>
    <symbol id='location' viewBox="0 0 16 16" fill="none">
        <path opacity="0.4"
            d="M13.7467 5.63334C13.0467 2.55334 10.36 1.16667 8 1.16667C8 1.16667 8 1.16667 7.99334 1.16667C5.64 1.16667 2.94667 2.54667 2.24667 5.62667C1.46667 9.06667 3.57334 11.98 5.48 13.8133C6.18667 14.4933 7.09334 14.8333 8 14.8333C8.90667 14.8333 9.81334 14.4933 10.5133 13.8133C12.42 11.98 14.5267 9.07334 13.7467 5.63334Z"
            fill="#1F64E5" />
        <path
            d="M7.99996 8.97333C9.15976 8.97333 10.1 8.03313 10.1 6.87333C10.1 5.71353 9.15976 4.77333 7.99996 4.77333C6.84017 4.77333 5.89996 5.71353 5.89996 6.87333C5.89996 8.03313 6.84017 8.97333 7.99996 8.97333Z"
            fill="#1F64E5" />
    </symbol>

    <symbol id='user-2' viewBox="0 0 16 16" fill="none">
        <path opacity="0.4"
            d="M7.99998 1.33334C6.25331 1.33334 4.83331 2.75334 4.83331 4.50001C4.83331 6.21334 6.17331 7.60001 7.91998 7.66001C7.97331 7.65334 8.02665 7.65334 8.06665 7.66001C8.07998 7.66001 8.08665 7.66001 8.09998 7.66001C8.10665 7.66001 8.10665 7.66001 8.11331 7.66001C9.81998 7.60001 11.16 6.21334 11.1666 4.50001C11.1666 2.75334 9.74665 1.33334 7.99998 1.33334Z"
            fill="#1F64E5" />
        <path
            d="M11.3866 9.43333C9.52664 8.19333 6.49331 8.19333 4.61997 9.43333C3.77331 9.99999 3.30664 10.7667 3.30664 11.5867C3.30664 12.4067 3.77331 13.1667 4.61331 13.7267C5.54664 14.3533 6.77331 14.6667 7.99997 14.6667C9.22664 14.6667 10.4533 14.3533 11.3866 13.7267C12.2266 13.16 12.6933 12.4 12.6933 11.5733C12.6866 10.7533 12.2266 9.99333 11.3866 9.43333Z"
            fill="#1F64E5" />
    </symbol>
    <symbol id='edit' viewBox="0 0 24 24" fill="none">
        <path opacity="0.4"
            d="M16 2H8C4 2 2 4 2 8V21C2 21.55 2.45 22 3 22H16C20 22 22 20 22 16V8C22 4 20 2 16 2Z"
            fill="#1F64E5" />
        <path
            d="M16.5499 7.46001C15.2899 6.20001 14.0699 6.17001 12.7799 7.46001L11.9899 8.25001C11.9199 8.32001 11.9 8.42001 11.92 8.51001C12.41 10.23 13.7799 11.6 15.4999 12.09C15.5199 12.1 15.5499 12.1 15.5799 12.1C15.6499 12.1 15.7199 12.07 15.7699 12.02L16.5499 11.24C17.1899 10.6 17.4999 9.99001 17.4999 9.37001C17.4999 8.72001 17.1899 8.10001 16.5499 7.46001Z"
            fill="#1F64E5" />
        <path
            d="M14.3399 12.67C14.1499 12.58 13.9699 12.49 13.7999 12.38C13.6599 12.3 13.52 12.21 13.39 12.11C13.28 12.04 13.1499 11.94 13.0199 11.83C12.9999 11.82 12.9599 11.79 12.9099 11.73C12.6999 11.55 12.4599 11.31 12.2399 11.06C12.2199 11.05 12.1899 11 12.1499 10.94C12.0799 10.86 11.9799 10.73 11.8799 10.59C11.7999 10.49 11.7099 10.35 11.6299 10.21C11.5299 10.04 11.4299 9.86 11.3499 9.68C11.2599 9.48 11.1899 9.3 11.1199 9.12L7.34995 12.89C7.09995 13.14 6.86995 13.6 6.81995 13.94L6.52994 16.02C6.45994 16.46 6.58993 16.87 6.85993 17.15C7.08993 17.38 7.40995 17.5 7.75995 17.5C7.83995 17.5 7.90993 17.49 7.98993 17.48L10.07 17.19C10.41 17.14 10.8699 16.91 11.1199 16.66L14.89 12.89C14.71 12.82 14.5299 12.75 14.3399 12.67Z"
            fill="#1F64E5" />
    </symbol>
    <symbol id='add-hearth' width="24" height="24" fill="none">
        <path
            d="M20.6799 13.91V13.9C19.7999 12.97 18.5699 12.4 17.1999 12.4C14.5499 12.4 12.3999 14.55 12.3999 17.2C12.3999 18.43 12.8699 19.55 13.6299 20.4C14.5099 21.38 15.7799 22 17.1999 22C19.8499 22 21.9999 19.85 21.9999 17.2C21.9999 15.93 21.4999 14.77 20.6799 13.91ZM18.9899 18.01H17.9499V19.1C17.9499 19.51 17.6099 19.85 17.1999 19.85C16.7899 19.85 16.4499 19.51 16.4499 19.1V18.01H15.4099C14.9899 18.01 14.6599 17.68 14.6599 17.26C14.6599 16.85 14.9799 16.52 15.3999 16.51H16.4499V15.51C16.4499 15.49 16.4499 15.47 16.4599 15.45C16.4799 15.07 16.8099 14.76 17.1999 14.76C17.5999 14.76 17.9299 15.08 17.9499 15.48V16.51H18.9899C19.4099 16.51 19.7399 16.85 19.7399 17.26C19.7399 17.68 19.4099 18.01 18.9899 18.01Z"
            fill="#ED6366" />
        <path opacity="0.4"
            d="M22 8.69C22 9.88 21.81 10.98 21.48 12C21.27 12.67 21 13.31 20.68 13.9C19.8 12.97 18.57 12.4 17.2 12.4C14.55 12.4 12.4 14.55 12.4 17.2C12.4 18.43 12.87 19.55 13.63 20.4C13.26 20.57 12.92 20.71 12.62 20.81C12.28 20.93 11.72 20.93 11.38 20.81C8.97001 19.99 4.10002 17 2.52002 12C2.19002 10.98 2 9.88 2 8.69C2 5.6 4.49 3.10001 7.56 3.10001C9.37 3.10001 10.99 3.97999 12 5.32999C13.01 3.97999 14.63 3.10001 16.44 3.10001C19.51 3.10001 22 5.6 22 8.69Z"
            fill="#ED6366" />
    </symbol>

    <symbol id='fire' viewBox="0 0 18 18" fill="none">
        <g clip-path="url(#clip0_10_2329)">
            <path
                d="M8.99917 18.0001C5.10456 18.0001 1.93604 14.8239 1.93604 10.9198C1.93604 7.8835 3.31592 5.17611 5.3419 2.95262C7.0082 1.12386 8.65735 0.116846 8.72671 0.0749046C9.09226 -0.146228 9.58287 0.155061 9.58287 0.562522V5.41285L12.0644 3.0968C12.2798 2.89574 12.6208 2.90966 12.8183 3.13294C13.7614 4.19905 14.5122 5.32486 15.0497 6.47914C18.0476 12.9171 13.9149 18.0001 8.99917 18.0001Z"
                fill="#FE4E33" />
            <path
                d="M15.0495 6.47918C14.512 5.3249 13.7612 4.19909 12.8181 3.13298C12.6206 2.90966 12.2796 2.89578 12.0642 3.09684L9.58269 5.41289V0.562562C9.58269 0.255788 9.30464 0.00930786 9.01123 0.000518799V18.0001C13.9216 17.9917 18.0449 12.9118 15.0495 6.47918Z"
                fill="#FE1600" />
            <path
                d="M8.99913 18C7.51905 18 6.31494 16.7929 6.31494 15.3093C6.31494 12.9119 8.64257 11.4924 8.74164 11.4331C8.91531 11.3293 9.13276 11.3341 9.30165 11.4454C9.39889 11.5095 11.6833 13.0417 11.6833 15.3093C11.6833 16.7929 10.4792 18 8.99913 18Z"
                fill="#FEC356" />
            <path
                d="M11.6832 15.3094C11.6832 13.0418 9.39876 11.5096 9.30155 11.4455C9.21359 11.3875 9.11248 11.3587 9.01123 11.3588V17.9997C10.4856 17.9931 11.6832 16.7889 11.6832 15.3094Z"
                fill="#FEB020" />
        </g>
        <defs>
            <clipPath id="clip0_10_2329">
                <rect width="18" height="18" fill="white" />
            </clipPath>
        </defs>
    </symbol>
    <symbol id='fats' viewBox="0 0 18 18" fill="none">
        <g clip-path="url(#clip0_10_2344)">
            <path
                d="M0.26709 11.5033C0.26709 11.5748 0.267945 11.6462 0.269621 11.7173C0.39833 17.1815 10.0009 17.1815 10.1296 11.7173C10.1313 11.6462 10.1321 11.5748 10.1321 11.5033C10.1321 8.07102 8.1917 5.02725 5.19965 3.13193C2.20754 5.02725 0.26709 8.07102 0.26709 11.5033Z"
                fill="#FFCA5E" />
            <path
                d="M5.20216 15.8156C2.76947 15.8156 0.336786 14.4494 0.27227 11.7173C0.270488 11.646 0.269775 11.5747 0.269775 11.5034C0.269775 8.07093 2.21022 5.02731 5.20216 3.13177C3.70583 5.02731 2.73526 8.07093 2.73526 11.5034C2.73526 11.5747 2.73561 11.646 2.73668 11.7173C2.76876 14.4494 3.98528 15.8156 5.20216 15.8156Z"
                fill="#E8A328" />
            <path
                d="M5.46729 11.5235C5.46729 11.6124 5.46832 11.7011 5.47042 11.7896C5.63046 18.5833 17.5695 18.5833 17.7295 11.7896C17.7316 11.7011 17.7327 11.6124 17.7327 11.5235C17.7327 7.25605 15.3201 3.47168 11.6 1.1152C7.87991 3.47165 5.46729 7.25602 5.46729 11.5235Z"
                fill="#FFCA5E" />
            <path
                d="M11.5999 16.8849C8.57517 16.8849 5.55045 15.1865 5.47025 11.7896C5.46811 11.7012 5.46704 11.6125 5.46704 11.5234C5.46704 7.25611 7.87976 3.47146 11.5999 1.11505C9.50583 3.47146 8.1478 7.25611 8.1478 11.5234C8.1478 11.6125 8.14852 11.7012 8.14959 11.7896C8.1945 15.1865 9.8972 16.8849 11.5999 16.8849Z"
                fill="#E8A328" />
            <path
                d="M15.8126 10.5597C16.241 10.5597 16.5883 10.2125 16.5883 9.78404C16.5883 9.35563 16.241 9.00833 15.8126 9.00833C15.3842 9.00833 15.0369 9.35563 15.0369 9.78404C15.0369 10.2125 15.3842 10.5597 15.8126 10.5597Z"
                fill="#FFCE76" />
            <path
                d="M15.0723 13.5672C15.8075 13.5672 16.4036 12.9712 16.4036 12.2359C16.4036 11.5007 15.8075 10.9046 15.0723 10.9046C14.337 10.9046 13.741 11.5007 13.741 12.2359C13.741 12.9712 14.337 13.5672 15.0723 13.5672Z"
                fill="#FFCE76" />
            <path
                d="M16.0778 5.12415C15.9977 5.00015 15.8323 4.96458 15.7082 5.0447C15.5842 5.12483 15.5486 5.29029 15.6288 5.41433C16.8303 7.27401 17.4653 9.38654 17.4653 11.5235C17.4653 11.6099 17.4643 11.6973 17.4623 11.7833C17.384 15.1048 14.3686 16.6176 11.6 16.6176C8.83135 16.6176 5.81592 15.1048 5.73765 11.7833C5.73562 11.6973 5.73458 11.6099 5.73458 11.5235C5.73458 9.48599 6.284 7.54034 7.36757 5.74065C8.37696 4.06414 9.83818 2.57755 11.6 1.43281C12.9212 2.29065 14.0573 3.32247 14.9789 4.50181C15.0698 4.61816 15.2378 4.63876 15.3541 4.54787C15.4705 4.45694 15.4911 4.28895 15.4001 4.17261C14.4077 2.90255 13.1772 1.79791 11.743 0.88939C11.6556 0.834071 11.5442 0.834071 11.4569 0.88939C9.86652 1.89679 8.50379 3.17277 7.46876 4.61605C6.8404 3.97703 6.1267 3.4026 5.34272 2.90601C5.25535 2.85069 5.1439 2.85069 5.0566 2.90601C3.52517 3.87623 2.25468 5.15477 1.38252 6.60337C0.478054 8.10561 0 9.80001 0 11.5034C0 11.5832 0.000819807 11.6554 0.00256635 11.7236C0.0206021 12.4887 0.214932 13.186 0.580138 13.7961C0.630253 13.8798 0.718899 13.9262 0.809755 13.9262C0.85652 13.9262 0.903819 13.9139 0.946841 13.8882C1.07352 13.8124 1.11472 13.6482 1.03891 13.5215C0.721751 12.9917 0.552906 12.3826 0.53708 11.7106C0.535441 11.6464 0.534657 11.5787 0.534657 11.5035C0.534657 9.87426 0.974037 8.31844 1.84057 6.87915C2.64291 5.54653 3.80205 4.36373 5.19975 3.44968C5.92335 3.92257 6.58145 4.46521 7.16066 5.06581C7.07436 5.19762 6.99042 5.33053 6.90958 5.4648C5.79115 7.32241 5.19996 9.41745 5.19996 11.5235C5.19996 11.6141 5.20103 11.7057 5.20317 11.7959C5.23639 13.2064 5.75736 14.4238 6.71825 15.3561C5.93654 15.5592 5.08052 15.6031 4.26114 15.4766C3.2469 15.3201 2.36543 14.9255 1.71204 14.3356C1.60247 14.2367 1.43352 14.2453 1.33447 14.355C1.23556 14.4645 1.24418 14.6336 1.35379 14.7325C2.32708 15.6112 3.74848 16.085 5.20153 16.085C5.87527 16.085 6.55585 15.983 7.20161 15.7724C7.22489 15.7902 7.24795 15.8082 7.27158 15.8258C8.42419 16.6811 9.96137 17.1523 11.6 17.1523C13.2386 17.1523 14.7757 16.6811 15.9283 15.8258C17.2424 14.8506 17.9577 13.4571 17.9968 11.796C17.9989 11.7058 18 11.6142 18 11.5236C18 9.28335 17.3354 7.07048 16.0778 5.12415Z"
                fill="#232E1F" />
        </g>
        <defs>
            <clipPath id="clip0_10_2344">
                <rect width="18" height="18" fill="white" />
            </clipPath>
        </defs>
    </symbol>
    <symbol id='proteins' viewBox="0 0 18 18" fill="none">
        <path
            d="M13.5 4.78125V13.2188C13.5 13.5171 13.3815 13.8033 13.1705 14.0142C12.9595 14.2252 12.6734 14.3438 12.375 14.3438H9.5625C8.96576 14.3438 8.39347 14.1067 7.97151 13.6847C7.54955 13.2628 7.3125 12.6905 7.3125 12.0938V11.9972C7.3125 11.8495 7.2834 11.7032 7.22686 11.5667C7.17032 11.4302 7.08745 11.3062 6.98298 11.2017L5.95452 10.1733C5.85005 10.0688 5.76718 9.94478 5.71064 9.80829C5.6541 9.67179 5.625 9.5255 5.625 9.37775V5.90625C5.625 5.01114 5.98058 4.1527 6.61351 3.51976C7.24645 2.88683 8.10489 2.53125 9 2.53125H11.25C11.8467 2.53125 12.419 2.7683 12.841 3.19026C13.2629 3.61222 13.5 4.18451 13.5 4.78125Z"
            fill="#FC9495" />
        <path
            d="M9 3.65625H11.25C11.5484 3.65625 11.8345 3.77478 12.0455 3.98575C12.2565 4.19673 12.375 4.48288 12.375 4.78125V12.6562C12.375 12.8054 12.3157 12.9485 12.2102 13.054C12.1048 13.1595 11.9617 13.2188 11.8125 13.2188H9.5625C9.26413 13.2188 8.97798 13.1002 8.767 12.8892C8.55603 12.6783 8.4375 12.3921 8.4375 12.0938V11.4347C8.4375 11.287 8.4084 11.1407 8.35186 11.0042C8.29532 10.8677 8.21245 10.7437 8.10798 10.6392L7.07952 9.61077C6.97505 9.5063 6.89218 9.38228 6.83564 9.24579C6.7791 9.10929 6.75 8.963 6.75 8.81525V5.90625C6.75 5.30951 6.98705 4.73722 7.40901 4.31526C7.83097 3.8933 8.40326 3.65625 9 3.65625Z"
            fill="#E74444" />
        <path
            d="M10.4062 6.46875C10.8722 6.46875 11.25 6.09099 11.25 5.625C11.25 5.15901 10.8722 4.78125 10.4062 4.78125C9.94026 4.78125 9.5625 5.15901 9.5625 5.625C9.5625 6.09099 9.94026 6.46875 10.4062 6.46875Z"
            fill="#FAE8D8" />
        <path
            d="M5.90625 14.9062L4.21875 14.3438L2.53125 14.9062L3.375 12.9375V12.0938H5.0625V12.9375L5.90625 14.9062Z"
            fill="#606669" />
        <path
            d="M4.21875 1.6875C4.21875 1.6875 7.59375 2.8125 7.59375 5.625C7.59375 8.23616 6.86647 10.12 5.41195 11.5017C5.30151 11.6067 5.21357 11.733 5.1535 11.8731C5.09342 12.0131 5.06246 12.1639 5.0625 12.3163V12.9375H3.375V12.3163C3.37504 12.1639 3.34408 12.0131 3.284 11.8731C3.22393 11.733 3.13599 11.6067 3.02555 11.5017C1.57103 10.12 0.84375 8.23616 0.84375 5.625C0.84375 2.8125 4.21875 1.6875 4.21875 1.6875Z"
            fill="#99A2A7" />
        <path
            d="M4.5 5.625H6.1875V6.46875C6.1875 6.69253 6.09861 6.90714 5.94037 7.06537C5.78214 7.22361 5.56753 7.3125 5.34375 7.3125C5.11997 7.3125 4.90536 7.22361 4.74713 7.06537C4.58889 6.90714 4.5 6.69253 4.5 6.46875V5.625Z"
            fill="#606669" />
        <path
            d="M17.1562 13.7812C17.1562 12.9375 16.3125 11.8125 14.3438 11.8125C12.375 11.8125 12.375 13.7812 12.375 13.7812C12.375 13.7812 12.375 15.75 14.3438 15.75C16.3125 15.75 17.1562 14.625 17.1562 13.7812Z"
            fill="#DEB89A" />
        <path
            d="M11.8125 11.5312C10.9688 11.5312 9.84375 12.375 9.84375 14.3438C9.84375 16.3125 11.8125 16.3125 11.8125 16.3125C11.8125 16.3125 13.7812 16.3125 13.7812 14.3438C13.7812 12.375 12.6562 11.5312 11.8125 11.5312Z"
            fill="#F5CBAA" />
        <path
            d="M2.81275 4.78125V11.2901C1.50037 9.92953 0.844004 8.10527 0.844004 5.625C0.843317 5.34031 0.879356 5.05672 0.95123 4.78125H2.81275Z"
            fill="#606669" />
        <path
            d="M7.59375 5.625H0.84375C0.84375 2.8125 4.21875 1.6875 4.21875 1.6875C4.21875 1.6875 7.59375 2.8125 7.59375 5.625Z"
            fill="#757C80" />
        <path
            d="M3.9375 4.21875C4.24816 4.21875 4.5 3.96691 4.5 3.65625C4.5 3.34559 4.24816 3.09375 3.9375 3.09375C3.62684 3.09375 3.375 3.34559 3.375 3.65625C3.375 3.96691 3.62684 4.21875 3.9375 4.21875Z"
            fill="#606669" />
        <path
            d="M10.4063 6.75C10.6288 6.75 10.8463 6.68402 11.0313 6.5604C11.2163 6.43679 11.3605 6.26109 11.4456 6.05552C11.5308 5.84995 11.5531 5.62375 11.5096 5.40552C11.4662 5.1873 11.3591 4.98684 11.2018 4.82951C11.0444 4.67217 10.844 4.56503 10.6257 4.52162C10.4075 4.47821 10.1813 4.50049 9.97574 4.58564C9.77017 4.67078 9.59447 4.81498 9.47085 4.99998C9.34723 5.18499 9.28125 5.4025 9.28125 5.625C9.28158 5.92327 9.40022 6.20922 9.61113 6.42013C9.82203 6.63103 10.108 6.74967 10.4063 6.75ZM10.4063 5.0625C10.5175 5.0625 10.6263 5.09549 10.7188 5.1573C10.8113 5.21911 10.8834 5.30696 10.9259 5.40974C10.9685 5.51252 10.9797 5.62562 10.958 5.73474C10.9362 5.84385 10.8827 5.94408 10.804 6.02275C10.7253 6.10142 10.6251 6.15499 10.516 6.17669C10.4069 6.1984 10.2938 6.18726 10.191 6.14468C10.0882 6.10211 10.0004 6.03001 9.93855 5.93751C9.87674 5.84501 9.84375 5.73625 9.84375 5.625C9.84393 5.47587 9.90325 5.3329 10.0087 5.22745C10.1142 5.122 10.2571 5.06268 10.4063 5.0625Z"
            fill="black" />
        <path
            d="M16.67 12.2658C16.2738 11.9307 15.5489 11.5313 14.3438 11.5313C14.1548 11.5304 13.9664 11.549 13.7812 11.5866V4.78126C13.7805 4.11016 13.5136 3.46677 13.039 2.99223C12.5645 2.51769 11.9211 2.25076 11.25 2.25001H9C8.19721 2.24963 7.41672 2.51407 6.7795 3.00235C6.56307 2.77392 6.32736 2.56455 6.075 2.37657C5.53568 1.97344 4.94027 1.6514 4.3077 1.42067C4.24996 1.40144 4.18754 1.40144 4.1298 1.42067C3.49723 1.6514 2.90182 1.97344 2.3625 2.37657C1.18494 3.25977 0.5625 4.38304 0.5625 5.62501C0.5625 8.26609 1.30479 10.2551 2.83184 11.7057C2.91445 11.7845 2.98025 11.8792 3.02526 11.9842C3.07028 12.0891 3.09357 12.202 3.09375 12.3162V12.8797L2.27271 14.7955C2.25135 14.8453 2.24485 14.9003 2.25399 14.9537C2.26313 15.0072 2.28753 15.0568 2.32425 15.0967C2.36097 15.1366 2.40844 15.1651 2.46095 15.1786C2.51345 15.1922 2.56876 15.1903 2.6202 15.1731L4.21875 14.6402L5.8173 15.1731C5.86874 15.1903 5.92405 15.1922 5.97655 15.1786C6.02906 15.1651 6.07653 15.1366 6.11325 15.0967C6.14997 15.0568 6.17437 15.0072 6.18351 14.9537C6.19266 14.9003 6.18615 14.8453 6.16479 14.7955L5.34375 12.8797V12.3162C5.34393 12.202 5.36723 12.0891 5.41224 11.9841C5.45726 11.8792 5.52305 11.7845 5.60566 11.7056C5.85994 11.4642 6.09534 11.2037 6.30981 10.9264L6.78421 11.4007C6.94182 11.5593 7.03059 11.7735 7.03125 11.9971V12.0938C7.032 12.7649 7.29893 13.4083 7.77347 13.8828C8.24801 14.3573 8.8914 14.6243 9.5625 14.625H9.57568C9.66709 15.5956 10.2264 16.08 10.7023 16.318C11.0488 16.4871 11.4271 16.5811 11.8125 16.5938C12.1979 16.5811 12.5762 16.4871 12.9227 16.318C13.1376 16.2119 13.3327 16.0697 13.4995 15.8977C13.7715 15.9892 14.0568 16.0343 14.3438 16.0313C15.5489 16.0313 16.2738 15.6319 16.67 15.2967C17.1577 14.884 17.4375 14.3316 17.4375 13.7813C17.4375 13.2309 17.1577 12.6785 16.67 12.2658ZM9 2.81251H11.25C11.772 2.8131 12.2724 3.02071 12.6415 3.38979C13.0106 3.75888 13.2182 4.25929 13.2188 4.78126V11.7857C13.1944 11.7985 13.1703 11.8118 13.1466 11.8256C13.0002 11.6851 12.8352 11.5652 12.6562 11.4695V4.78126C12.6558 4.40843 12.5075 4.05099 12.2439 3.78735C11.9803 3.52372 11.6228 3.37543 11.25 3.37501H9C8.43512 3.37588 7.88664 3.565 7.44128 3.91248C7.35196 3.74643 7.25117 3.58682 7.13964 3.43481C7.67558 3.03057 8.3287 2.8121 9 2.81251ZM8.30696 10.4405L7.27829 9.4118C7.2578 9.39112 7.23841 9.36938 7.22018 9.34669C7.65865 8.28381 7.875 7.0494 7.875 5.62501C7.87555 5.22468 7.80869 4.82712 7.67721 4.449C8.03964 4.12067 8.51096 3.93843 9 3.93751H11.25C11.4737 3.93777 11.6882 4.02675 11.8463 4.18493C12.0045 4.3431 12.0935 4.55756 12.0938 4.78126V11.2746C12.0009 11.2585 11.9068 11.2503 11.8125 11.25C11.2621 11.25 10.7098 11.5298 10.297 12.0175C10.0706 12.2901 9.8962 12.6019 9.78247 12.9375H9.5625C9.3388 12.9373 9.12434 12.8483 8.96617 12.6901C8.80799 12.5319 8.71901 12.3175 8.71875 12.0938V11.4346C8.71925 11.2499 8.68312 11.0669 8.61243 10.8963C8.54175 10.7256 8.43792 10.5707 8.30696 10.4405ZM2.68794 2.83564C3.15815 2.48572 3.67305 2.20027 4.21896 1.9869C4.7602 2.19807 5.27088 2.48045 5.7375 2.82657C6.69023 3.54116 7.21463 4.38684 7.29988 5.34376H1.13762C1.22252 4.39103 1.74284 3.54844 2.68794 2.83564ZM4.78125 5.90626H5.90625V6.46876C5.90625 6.61794 5.84699 6.76102 5.7415 6.86651C5.63601 6.972 5.49293 7.03126 5.34375 7.03126C5.19457 7.03126 5.05149 6.972 4.946 6.86651C4.84051 6.76102 4.78125 6.61794 4.78125 6.46876V5.90626ZM1.1282 5.90626H2.53125V10.531C2.16131 10.0418 1.86525 9.50095 1.65255 8.92569C1.32402 8.04924 1.15204 7.05882 1.1282 5.90626ZM4.3077 14.0769C4.24996 14.0577 4.18754 14.0577 4.1298 14.0769L3.03645 14.4414L3.56048 13.2188H4.87702L5.40102 14.4414L4.3077 14.0769ZM5.21824 11.2978C5.08042 11.4292 4.97064 11.5873 4.89554 11.7623C4.82043 11.9373 4.78156 12.1258 4.78125 12.3162V12.6563H3.65625V12.3162C3.65594 12.1258 3.61706 11.9373 3.54195 11.7623C3.46684 11.5873 3.35706 11.4293 3.21922 11.2978C3.17668 11.2574 3.13486 11.2166 3.09375 11.1754V5.90626H4.21875V6.46876C4.21875 6.76713 4.33728 7.05328 4.54825 7.26426C4.75923 7.47523 5.04538 7.59376 5.34375 7.59376C5.64212 7.59376 5.92827 7.47523 6.13925 7.26426C6.35022 7.05328 6.46875 6.76713 6.46875 6.46876V5.90626H7.3093C7.28546 7.05882 7.11348 8.04924 6.78495 8.92569C6.45345 9.82704 5.91714 10.6391 5.21828 11.2978H5.21824ZM7.59375 12.0938V11.9971C7.59425 11.8124 7.55812 11.6294 7.48743 11.4588C7.41675 11.2881 7.31292 11.1332 7.18196 11.003L6.63933 10.4603C6.75675 10.2782 6.86573 10.0899 6.96628 9.89523L7.90928 10.8382C8.06687 10.9968 8.1556 11.211 8.15625 11.4346V12.0938C8.15667 12.4666 8.30496 12.824 8.56859 13.0877C8.83223 13.3513 9.18967 13.4996 9.5625 13.5H9.63527C9.6018 13.686 9.58009 13.8738 9.57027 14.0625H9.5625C9.04053 14.0619 8.54012 13.8543 8.17103 13.4852C7.80195 13.1161 7.59434 12.6157 7.59375 12.0938ZM12.6868 15.8069C12.4141 15.9416 12.1164 16.018 11.8125 16.0313C11.7436 16.0313 10.125 16.0121 10.125 14.3438C10.125 12.4997 11.1601 11.8125 11.8125 11.8125C12.4649 11.8125 13.5 12.4997 13.5 14.3438C13.5 15.0381 13.2264 15.5304 12.6868 15.8069ZM14.3438 15.4688C14.1735 15.4699 14.0037 15.4508 13.838 15.4118C13.9749 15.1305 14.0625 14.78 14.0625 14.3438C14.0625 13.3573 13.7949 12.6927 13.5141 12.2668C13.7466 12.152 14.0244 12.0938 14.3438 12.0938C16.1878 12.0938 16.875 13.1288 16.875 13.7813C16.875 14.4337 16.1878 15.4688 14.3438 15.4688Z"
            fill="black" />
        <path
            d="M3.9375 4.5C4.10438 4.5 4.26751 4.45051 4.40626 4.3578C4.54501 4.26509 4.65316 4.13331 4.71702 3.97914C4.78088 3.82496 4.79759 3.65531 4.76503 3.49164C4.73248 3.32797 4.65212 3.17763 4.53412 3.05963C4.41612 2.94163 4.26578 2.86127 4.10211 2.82871C3.93843 2.79616 3.76878 2.81287 3.61461 2.87673C3.46044 2.94059 3.32866 3.04873 3.23595 3.18749C3.14324 3.32624 3.09375 3.48937 3.09375 3.65625C3.09401 3.87994 3.18299 4.0944 3.34117 4.25258C3.49934 4.41076 3.7138 4.49974 3.9375 4.5ZM3.9375 3.375C3.99312 3.375 4.0475 3.39149 4.09375 3.4224C4.14 3.4533 4.17605 3.49723 4.19734 3.54862C4.21863 3.60001 4.2242 3.65656 4.21334 3.71112C4.20249 3.76567 4.17571 3.81579 4.13637 3.85512C4.09704 3.89446 4.04692 3.92124 3.99237 3.93209C3.93781 3.94295 3.88126 3.93738 3.82987 3.91609C3.77848 3.8948 3.73455 3.85875 3.70365 3.8125C3.67274 3.76625 3.65625 3.71187 3.65625 3.65625C3.65633 3.58168 3.68599 3.51019 3.73872 3.45747C3.79144 3.40474 3.86293 3.37508 3.9375 3.375Z"
            fill="black" />
    </symbol>
    <symbol id='carbo' viewBox="0 0 17 18" fill="none">
        <g clip-path="url(#clip0_10_2383)">
            <path
                d="M12.7609 4.9321C12.0122 4.19269 11.0516 3.87021 9.90297 3.97009C7.50967 4.18134 6.06253 7.14614 5.48291 8.63391C5.52998 9.02485 5.5707 9.41681 5.60406 9.80901C5.67268 9.77371 5.72777 9.71251 5.75136 9.63253C5.76029 9.60229 6.32873 7.71806 7.42427 6.25102C7.76198 5.79877 8.28409 5.51794 8.84849 5.52111C9.2787 5.52353 9.75383 5.62169 10.1615 5.881C12.5991 7.43115 13.9443 11.9013 13.9576 11.9461C13.9947 12.0714 14.1096 12.1556 14.2377 12.1556C14.248 12.1556 14.2584 12.155 14.2688 12.1538C14.4091 12.139 14.5187 12.026 14.5292 11.8853C14.5442 11.6875 14.8719 7.01704 12.7609 4.9321Z"
                fill="#FFC850" />
            <path
                d="M5.44782 11.5711C5.29116 11.5711 5.16143 11.4469 5.15588 11.2891C5.15247 11.1913 5.07797 8.86602 5.60222 6.33446C6.31037 2.9145 7.79175 0.80073 9.88612 0.221426C11.5882 -0.249456 13.1614 0.0362232 14.316 1.02562C15.6799 2.19422 16.2741 4.18701 15.9891 6.63694C15.9731 6.77479 15.8624 6.88237 15.7243 6.89436C15.5843 6.90807 15.4585 6.81958 15.4188 6.68662C14.4736 3.51356 11.0048 1.37026 8.69211 1.688C8.49773 1.71472 8.31407 1.8018 8.1803 1.94535C5.54935 4.76758 5.73726 11.1914 5.74004 11.2686C5.74559 11.4298 5.61945 11.5654 5.45822 11.5708C5.45467 11.5711 5.45123 11.5711 5.44782 11.5711Z"
                fill="#FFC850" />
            <path
                d="M3.79062 0.524496C3.41413 1.78664 2.74532 4.85353 3.40229 9.23326L4.57119 14.7855L5.7401 11.8633C4.3194 7.60124 4.06501 2.3799 4.01959 0.552059C4.01625 0.4185 3.82884 0.396457 3.79062 0.524496Z"
                fill="#D4F582" />
            <path
                d="M7.18785 9.1785C5.16341 9.59236 4.86353 14.2011 4.86353 14.2011L6.03244 17.7078C6.03244 17.7078 6.84827 10.994 7.71143 10.8405C8.55996 10.6896 12.1827 13.4882 13.7746 14.759C13.883 14.8456 14.0255 14.7051 13.9398 14.5959C12.5681 12.8487 9.13427 8.7806 7.18785 9.1785Z"
                fill="#AFD755" />
            <path
                d="M1.94156 4.01762C1.93042 6.17618 2.13963 11.8195 4.32723 17.622C4.41297 17.8495 4.6333 18 4.87633 18H6.2038C6.41171 18 6.55163 17.7899 6.4725 17.5976C4.21459 12.1111 2.69981 6.19421 2.17173 3.99005C2.13952 3.85551 1.9423 3.87928 1.94156 4.01762Z"
                fill="#BEE86E" />
            <path
                d="M15.9111 6.80115C15.8099 3.76885 14.7505 1.23363 12.4979 0.68572C10.6728 0.241802 9.00341 1.09972 8.29688 1.84377C8.41261 1.76045 8.54926 1.70761 8.69217 1.68795C11.0048 1.37021 14.4737 3.51351 15.4189 6.68658C15.4585 6.81958 15.5844 6.90803 15.7244 6.89432C15.7985 6.88792 15.8632 6.85259 15.9111 6.80115Z"
                fill="#FFDC64" />
            <path
                d="M10.507 4.53944C9.22468 4.51377 8.35186 5.10563 7.62427 6.02746C7.95196 5.70951 8.38498 5.51847 8.84837 5.52107C9.27858 5.5235 9.75371 5.62165 10.1614 5.88097C12.5989 7.43111 13.9442 11.9012 13.9575 11.9461C13.9946 12.0713 14.1094 12.1555 14.2376 12.1555C14.2478 12.1555 14.2583 12.1549 14.2687 12.1538C14.3673 12.1433 14.4486 12.0829 14.4932 11.9999C14.3607 5.26998 11.4202 4.55768 10.507 4.53944Z"
                fill="#FFDC64" />
        </g>
        <defs>
            <clipPath id="clip0_10_2383">
                <rect width="18" height="18" fill="white" />
            </clipPath>
        </defs>
    </symbol>
    <symbol id='circle' viewBox="0 0 20 20" fill='none'>
        <circle cx="10" cy="10" r="9.4" fill="white" stroke="#1F64E5" stroke-width="1.2" />
        <circle cx="10" cy="10" r="5" fill="#1F64E5" />
    </symbol>
    <symbol id='circle-2' viewBox="0 0 20 20" fill='none'>
        <circle cx="10" cy="10" r="9.4" fill="white" stroke="#A5A3B0" stroke-width="1.2" />
        <circle cx="10" cy="10" r="5" fill="#A5A3B0" />
    </symbol>

    <symbol id='pencil' viewBox="0 0 14 14" fill="none">
        <path
            d="M12.475 4.69375L9.2875 1.54375L10.3375 0.49375C10.625 0.20625 10.9783 0.0625 11.3973 0.0625C11.8158 0.0625 12.1687 0.20625 12.4562 0.49375L13.5062 1.54375C13.7937 1.83125 13.9437 2.17825 13.9562 2.58475C13.9687 2.99075 13.8313 3.3375 13.5438 3.625L12.475 4.69375ZM11.3875 5.8L3.4375 13.75H0.25V10.5625L8.2 2.6125L11.3875 5.8Z"
            fill="white" />
    </symbol>
    <symbol id='profile' viewBox="0 0 22 22" fill="none">
        <path
            d="M10.9999 12.1458C13.8466 12.1458 16.1562 9.83626 16.1562 6.98958C16.1562 4.1429 13.8466 1.83333 10.9999 1.83333C8.15324 1.83333 5.84367 4.1429 5.84367 6.98958C5.84367 9.83626 8.15324 12.1458 10.9999 12.1458ZM7.60897 13.2917C4.41854 13.2917 1.83325 15.8769 1.83325 19.0674C1.83325 19.6761 2.32739 20.1667 2.93254 20.1667H19.0673C19.676 20.1667 20.1666 19.6725 20.1666 19.0674C20.1666 15.8769 17.5813 13.2917 14.3909 13.2917H7.60897Z"
            fill="#1F64E5" />
    </symbol>
    <symbol id='chevron-right' viewBox="0 0 24 24" fill="none">
        <path
            d="M9.29 6.70999C9.1973 6.80251 9.12375 6.91239 9.07357 7.03337C9.02339 7.15434 8.99756 7.28402 8.99756 7.41499C8.99756 7.54596 9.02339 7.67564 9.07357 7.79662C9.12375 7.91759 9.1973 8.02748 9.29 8.11999L13.17 12L9.29 15.88C9.19742 15.9726 9.12398 16.0825 9.07388 16.2034C9.02377 16.3244 8.99798 16.4541 8.99798 16.585C8.99798 16.7159 9.02377 16.8456 9.07388 16.9665C9.12398 17.0875 9.19742 17.1974 9.29 17.29C9.38258 17.3826 9.4925 17.456 9.61346 17.5061C9.73442 17.5562 9.86407 17.582 9.995 17.582C10.1259 17.582 10.2556 17.5562 10.3765 17.5061C10.4975 17.456 10.6074 17.3826 10.7 17.29L15.29 12.7C15.3827 12.6075 15.4563 12.4976 15.5064 12.3766C15.5566 12.2556 15.5824 12.126 15.5824 11.995C15.5824 11.864 15.5566 11.7343 15.5064 11.6134C15.4563 11.4924 15.3827 11.3825 15.29 11.29L10.7 6.69999C10.32 6.31999 9.68 6.31999 9.29 6.70999Z"
            fill="#101010" />
    </symbol>
    <symbol id='setting' viewBox="0 0 24 24" fill="none">
        <path
            d="M12.0116 9.15468C11.3108 9.15468 10.6546 9.42655 10.1577 9.92343C9.66317 10.4203 9.38895 11.0766 9.38895 11.7773C9.38895 12.4781 9.66317 13.1344 10.1577 13.6312C10.6546 14.1258 11.3108 14.4 12.0116 14.4C12.7124 14.4 13.3686 14.1258 13.8655 13.6312C14.36 13.1344 14.6343 12.4781 14.6343 11.7773C14.6343 11.0766 14.36 10.4203 13.8655 9.92343C13.6228 9.67887 13.334 9.48498 13.0157 9.35301C12.6974 9.22104 12.3561 9.15362 12.0116 9.15468ZM21.6749 14.6742L20.1421 13.3641C20.2147 12.9187 20.2522 12.4641 20.2522 12.0117C20.2522 11.5594 20.2147 11.1023 20.1421 10.6594L21.6749 9.34921C21.7907 9.25008 21.8736 9.11806 21.9125 8.97069C21.9514 8.82332 21.9446 8.66759 21.8929 8.52421L21.8718 8.46327C21.4499 7.28364 20.8178 6.1902 20.0061 5.23593L19.964 5.18671C19.8654 5.07081 19.734 4.9875 19.5872 4.94776C19.4403 4.90801 19.2849 4.91369 19.1413 4.96405L17.2382 5.64139C16.535 5.06483 15.7522 4.61014 14.9038 4.29374L14.5358 2.30389C14.5081 2.15399 14.4353 2.01609 14.3273 1.9085C14.2193 1.80091 14.0811 1.72873 13.9311 1.70155L13.8679 1.68983C12.6491 1.46952 11.3647 1.46952 10.146 1.68983L10.0827 1.70155C9.93269 1.72873 9.79451 1.80091 9.6865 1.9085C9.57849 2.01609 9.50578 2.15399 9.47801 2.30389L9.1077 4.30311C8.2673 4.62204 7.48441 5.07563 6.78973 5.64608L4.87255 4.96405C4.72903 4.91329 4.57346 4.9074 4.42652 4.94717C4.27958 4.98695 4.14821 5.07049 4.04989 5.18671L4.0077 5.23593C3.19745 6.19122 2.56553 7.28438 2.14208 8.46327L2.12098 8.52421C2.01551 8.81718 2.10223 9.1453 2.33895 9.34921L3.89051 10.6734C3.81786 11.1141 3.7827 11.5641 3.7827 12.0094C3.7827 12.4594 3.81786 12.9094 3.89051 13.3453L2.34364 14.6695C2.22785 14.7686 2.14497 14.9007 2.10604 15.048C2.0671 15.1954 2.07395 15.3511 2.12567 15.4945L2.14676 15.5555C2.57098 16.7344 3.19676 17.8242 4.01239 18.7828L4.05458 18.832C4.15314 18.9479 4.28451 19.0312 4.43136 19.071C4.57822 19.1107 4.73367 19.105 4.87723 19.0547L6.79442 18.3726C7.49286 18.9469 8.27098 19.4016 9.11239 19.7156L9.4827 21.7148C9.51046 21.8647 9.58318 22.0026 9.69119 22.1102C9.79919 22.2178 9.93738 22.29 10.0874 22.3172L10.1507 22.3289C11.3814 22.5504 12.6418 22.5504 13.8725 22.3289L13.9358 22.3172C14.0858 22.29 14.224 22.2178 14.332 22.1102C14.44 22.0026 14.5128 21.8647 14.5405 21.7148L14.9085 19.725C15.7569 19.4062 16.5397 18.9539 17.2429 18.3773L19.146 19.0547C19.2895 19.1054 19.4451 19.1113 19.592 19.0716C19.739 19.0318 19.8703 18.9482 19.9686 18.832L20.0108 18.7828C20.8265 17.8195 21.4522 16.7344 21.8765 15.5555L21.8975 15.4945C21.9983 15.2039 21.9116 14.8781 21.6749 14.6742ZM12.0116 15.8976C9.73583 15.8976 7.8913 14.0531 7.8913 11.7773C7.8913 9.50155 9.73583 7.65702 12.0116 7.65702C14.2874 7.65702 16.1319 9.50155 16.1319 11.7773C16.1319 14.0531 14.2874 15.8976 12.0116 15.8976Z"
            fill="#1F64E5" />
    </symbol>
    <symbol id='simple' viewBox="0 0 24 24" fill="none">
        <path
            d="M20.7281 18C20.5968 18.2293 20.407 18.4196 20.178 18.5513C19.949 18.6831 19.6892 18.7517 19.425 18.75H4.57497C4.31078 18.7517 4.05089 18.6831 3.82192 18.5513C3.59294 18.4196 3.4031 18.2293 3.27184 18C3.13797 17.7707 3.0682 17.5096 3.06985 17.244C3.0715 16.9785 3.1445 16.7183 3.28122 16.4906C3.83434 15.5344 4.49997 13.7156 4.49997 10.5V9.75001C4.49873 8.76474 4.69188 7.78892 5.06836 6.87842C5.44483 5.96792 5.99723 5.14064 6.69391 4.44395C7.3906 3.74727 8.21788 3.19487 9.12838 2.8184C10.0389 2.44192 11.0147 2.24877 12 2.25001H12.0562C16.1625 2.27813 19.5 5.68126 19.5 9.83438V10.5C19.5 13.7156 20.1656 15.5344 20.7187 16.4906C20.8554 16.7183 20.9284 16.9785 20.9301 17.244C20.9317 17.5096 20.862 17.7707 20.7281 18ZM14.9906 20.25H8.99059C8.79168 20.25 8.60091 20.329 8.46026 20.4697C8.31961 20.6103 8.24059 20.8011 8.24059 21C8.24059 21.1989 8.31961 21.3897 8.46026 21.5303C8.60091 21.671 8.79168 21.75 8.99059 21.75H14.9906C15.1895 21.75 15.3803 21.671 15.5209 21.5303C15.6616 21.3897 15.7406 21.1989 15.7406 21C15.7406 20.8011 15.6616 20.6103 15.5209 20.4697C15.3803 20.329 15.1895 20.25 14.9906 20.25Z"
            fill="#1F64E5" />
    </symbol>
    <symbol id='support' viewBox="0 0 24 24" fill="none">
        <path
            d="M12 22C10.6167 22 9.31667 21.7373 8.1 21.212C6.88333 20.6873 5.825 19.975 4.925 19.075C4.025 18.175 3.31267 17.1167 2.788 15.9C2.26267 14.6833 2 13.3833 2 12C2 10.6167 2.26267 9.31667 2.788 8.1C3.31267 6.88333 4.025 5.825 4.925 4.925C5.825 4.025 6.88333 3.31233 8.1 2.787C9.31667 2.26233 10.6167 2 12 2C13.3833 2 14.6833 2.26233 15.9 2.787C17.1167 3.31233 18.175 4.025 19.075 4.925C19.975 5.825 20.6873 6.88333 21.212 8.1C21.7373 9.31667 22 10.6167 22 12C22 13.3833 21.7373 14.6833 21.212 15.9C20.6873 17.1167 19.975 18.175 19.075 19.075C18.175 19.975 17.1167 20.6873 15.9 21.212C14.6833 21.7373 13.3833 22 12 22ZM9.1 19.45L10.3 16.7C9.6 16.45 8.996 16.0623 8.488 15.537C7.97933 15.0123 7.58333 14.4 7.3 13.7L4.55 14.85C4.93333 15.9167 5.525 16.85 6.325 17.65C7.125 18.45 8.05 19.05 9.1 19.45ZM7.3 10.3C7.58333 9.6 7.97933 8.98767 8.488 8.463C8.996 7.93767 9.6 7.55 10.3 7.3L9.15 4.55C8.08333 4.95 7.15 5.55 6.35 6.35C5.55 7.15 4.95 8.08333 4.55 9.15L7.3 10.3ZM12 15C12.8333 15 13.5417 14.7083 14.125 14.125C14.7083 13.5417 15 12.8333 15 12C15 11.1667 14.7083 10.4583 14.125 9.875C13.5417 9.29167 12.8333 9 12 9C11.1667 9 10.4583 9.29167 9.875 9.875C9.29167 10.4583 9 11.1667 9 12C9 12.8333 9.29167 13.5417 9.875 14.125C10.4583 14.7083 11.1667 15 12 15ZM14.9 19.45C15.95 19.05 16.871 18.4543 17.663 17.663C18.4543 16.871 19.05 15.95 19.45 14.9L16.7 13.7C16.45 14.4 16.0667 15.004 15.55 15.512C15.0333 16.0207 14.4333 16.4167 13.75 16.7L14.9 19.45ZM16.7 10.25L19.45 9.1C19.05 8.05 18.4543 7.129 17.663 6.337C16.871 5.54567 15.95 4.95 14.9 4.55L13.75 7.35C14.4333 7.6 15.025 7.979 15.525 8.487C16.025 8.99567 16.4167 9.58333 16.7 10.25Z"
            fill="#1F64E5" />
    </symbol>
    <symbol id='logout' viewBox="0 0 22 22" fill="none">
        <path fill-rule="evenodd" clip-rule="evenodd"
            d="M1.83325 16.5C1.83325 17.2293 2.12298 17.9288 2.63871 18.4445C3.15443 18.9603 3.85391 19.25 4.58325 19.25L17.4166 19.25C18.1459 19.25 18.8454 18.9603 19.3611 18.4445C19.8769 17.9288 20.1666 17.2293 20.1666 16.5L20.1666 11C20.1666 10.2707 19.8769 9.57118 19.3611 9.05546C18.8454 8.53973 18.1459 8.25 17.4166 8.25L4.58325 8.25C3.85391 8.25 3.15443 8.53973 2.63871 9.05546C2.12298 9.57118 1.83325 10.2707 1.83325 11L1.83325 16.5ZM6.68517 7.06475C6.51332 6.89285 6.41678 6.65973 6.41678 6.41667C6.41678 6.1736 6.51332 5.94048 6.68517 5.76858L10.3518 2.10192C10.5237 1.93007 10.7569 1.83353 10.9999 1.83353C11.243 1.83353 11.4761 1.93007 11.648 2.10192L15.3147 5.76858C15.4816 5.94147 15.574 6.17302 15.572 6.41337C15.5699 6.65371 15.4735 6.88363 15.3035 7.05358C15.1335 7.22354 14.9036 7.31995 14.6633 7.32203C14.4229 7.32412 14.1914 7.23173 14.0185 7.06475L11.9166 4.96283L11.9166 12.8333C11.9166 13.0764 11.82 13.3096 11.6481 13.4815C11.4762 13.6534 11.243 13.75 10.9999 13.75C10.7568 13.75 10.5236 13.6534 10.3517 13.4815C10.1798 13.3096 10.0833 13.0764 10.0833 12.8333L10.0833 4.96283L7.98133 7.06475C7.80943 7.2366 7.57632 7.33314 7.33325 7.33314C7.09018 7.33314 6.85707 7.2366 6.68517 7.06475V7.06475Z"
            fill="#1F64E5" />
    </symbol>

    <symbol id='arrow-bottom' viewBox="0 0 12 8" fill="none">
        <path
            d="M5.80579 7.26985C5.59769 7.26985 5.38961 7.18258 5.23095 7.0084L0.238202 1.52463C-0.0794008 1.1758 -0.0794008 0.610213 0.238202 0.261516C0.555679 -0.087172 1.07052 -0.087172 1.38815 0.261516L5.80579 5.11386L10.2235 0.261688C10.5411 -0.0870092 11.0559 -0.0870092 11.3733 0.261688C11.6911 0.610385 11.6911 1.17596 11.3733 1.5248L6.38063 7.00858C6.22189 7.18278 6.01382 7.26985 5.80578 7.26985H5.80579Z"
            fill="#222B45" />
    </symbol>
    <symbol id='card-change' viewBox="0 0 24 23" fill="none">
            <path opacity="0.4"
                d="M15.5159 1.93149H7.88906C4.07565 1.93149 2.16895 3.83819 2.16895 7.6516V20.0452C2.16895 20.5695 2.59795 20.9985 3.1223 20.9985H15.5159C19.3293 20.9985 21.236 19.0918 21.236 15.2784V7.6516C21.236 3.83819 19.3293 1.93149 15.5159 1.93149Z"
                fill="#1F64E5" />
            <path
                d="M16.0402 7.1368C14.8389 5.93557 13.6758 5.90697 12.446 7.1368L11.6929 7.88994C11.6261 7.95668 11.6071 8.05201 11.6262 8.13782C12.0933 9.77758 13.3994 11.0837 15.0391 11.5508C15.0582 11.5604 15.0868 11.5604 15.1154 11.5604C15.1821 11.5604 15.2489 11.5318 15.2965 11.4841L16.0402 10.7405C16.6503 10.1303 16.9458 9.54878 16.9458 8.9577C16.9458 8.33802 16.6503 7.74694 16.0402 7.1368Z"
                fill="#1F64E5" />
            <path
                d="M13.9332 12.1038C13.7521 12.018 13.5805 11.9322 13.4184 11.8273C13.285 11.751 13.1515 11.6652 13.0276 11.5699C12.9227 11.5031 12.7988 11.4078 12.6748 11.3029C12.6557 11.2934 12.6176 11.2648 12.57 11.2076C12.3698 11.036 12.1409 10.8072 11.9312 10.5689C11.9121 10.5593 11.8835 10.5117 11.8454 10.4545C11.7787 10.3782 11.6833 10.2543 11.588 10.1208C11.5117 10.0254 11.4259 9.89198 11.3497 9.75851C11.2543 9.59644 11.159 9.42483 11.0827 9.25323C10.9969 9.06256 10.9302 8.89096 10.8635 8.71935L7.26932 12.3135C7.03098 12.5518 6.81171 12.9904 6.76405 13.3145L6.48756 15.2975C6.42083 15.717 6.54475 16.1078 6.80216 16.3748C7.02143 16.594 7.32653 16.7084 7.6602 16.7084C7.73647 16.7084 7.80318 16.6989 7.87945 16.6894L9.86244 16.4129C10.1866 16.3652 10.6251 16.146 10.8635 15.9076L14.4576 12.3135C14.286 12.2468 14.1144 12.18 13.9332 12.1038Z"
                fill="#1F64E5" />

    </symbol>
</svg>